<?xml version="1.0" encoding="UTF-8"?>
<svg xmlns="http://www.w3.org/2000/svg" width="820" height="420" viewBox="0 0 820 420">
  <rect width="100%" height="100%" fill="#ffffff"/>
  <text x="410" y="22" text-anchor="middle" font-size="16" font-weight="600" fill="#222">Оптимизация θ (optimize_1.log, 30 ит.)</text>
  <line x1="55" y1="365.0" x2="795" y2="365.0" stroke="#e8e8e8" stroke-width="1"/><text x="47" y="369.0" text-anchor="end" font-size="11" fill="#666">0</text><line x1="55" y1="282.5" x2="795" y2="282.5" stroke="#e8e8e8" stroke-width="1"/><text x="47" y="286.5" text-anchor="end" font-size="11" fill="#666">4</text><line x1="55" y1="200.0" x2="795" y2="200.0" stroke="#e8e8e8" stroke-width="1"/><text x="47" y="204.0" text-anchor="end" font-size="11" fill="#666">8</text><line x1="55" y1="117.5" x2="795" y2="117.5" stroke="#e8e8e8" stroke-width="1"/><text x="47" y="121.5" text-anchor="end" font-size="11" fill="#666">12</text><line x1="55" y1="35.0" x2="795" y2="35.0" stroke="#e8e8e8" stroke-width="1"/><text x="47" y="39.0" text-anchor="end" font-size="11" fill="#666">16</text>
  <polyline fill="none" stroke="#2563eb" stroke-width="2.5" points="55.0,360.7 80.5,364.2 106.0,360.1 131.6,354.6 157.1,354.4 182.6,361.4 208.1,362.6 233.6,321.4 259.1,326.4 284.7,354.8 310.2,308.4 335.7,126.7 361.2,192.2 386.7,89.9 412.2,83.7 437.8,121.0 463.3,73.8 488.8,98.4 514.3,76.6 539.8,71.6 565.3,70.1 590.9,67.6 616.4,65.8 641.9,66.2 667.4,72.2 692.9,67.3 718.4,61.3 744.0,61.2 769.5,52.5 795.0,64.5" />
  <polyline fill="none" stroke="#16a34a" stroke-width="2.5" points="55.0,343.8 80.5,358.8 106.0,339.2 131.6,333.2 157.1,318.4 182.6,338.8 208.1,351.8 233.6,111.1 259.1,95.2 284.7,336.3 310.2,86.6 335.7,68.4 361.2,55.8 386.7,58.3 412.2,50.5 437.8,45.7 463.3,56.7 488.8,61.2 514.3,58.9 539.8,53.6 565.3,57.7 590.9,50.7 616.4,45.1 641.9,46.1 667.4,48.6 692.9,51.7 718.4,47.6 744.0,46.3 769.5,36.4 795.0,56.7" />
  <text x="55.0" y="398" text-anchor="middle" font-size="11" fill="#666">1</text><text x="182.6" y="398" text-anchor="middle" font-size="11" fill="#666">6</text><text x="310.2" y="398" text-anchor="middle" font-size="11" fill="#666">11</text><text x="437.8" y="398" text-anchor="middle" font-size="11" fill="#666">16</text><text x="565.3" y="398" text-anchor="middle" font-size="11" fill="#666">21</text><text x="692.9" y="398" text-anchor="middle" font-size="11" fill="#666">26</text>
  <text x="410" y="414" text-anchor="middle" font-size="12" fill="#444">Итерация</text>
  <text transform="translate(16,200) rotate(-90)" text-anchor="middle" font-size="12" fill="#444">J</text>
  <rect x="600" y="38" width="200" height="56" fill="#fafafa" stroke="#ddd" rx="4"/>
  <line x1="615" y1="56" x2="645" y2="56" stroke="#2563eb" stroke-width="2.5"/>
  <text x="652" y="60" font-size="12" fill="#333">среднее J по 10 θ</text>
  <line x1="615" y1="78" x2="645" y2="78" stroke="#16a34a" stroke-width="2.5"/>
  <text x="652" y="82" font-size="12" fill="#333">лучший J на итерации</text>
</svg>
